<?xml version="1.0" standalone="no"?><!DOCTYPE svg PUBLIC "-//W3C//DTD SVG 1.1//EN" "http://www.w3.org/Graphics/SVG/1.1/DTD/svg11.dtd"><svg t="1557737675680" class="icon" style="" viewBox="0 0 1024 1024" version="1.1" xmlns="http://www.w3.org/2000/svg" p-id="2831" xmlns:xlink="http://www.w3.org/1999/xlink" width="32" height="32"><defs><style type="text/css"></style></defs><path d="M856.746667 546.133333h-682.666667c-18.773333 0-34.133333-15.36-34.133333-34.133333s15.36-34.133333 34.133333-34.133333h682.666667c18.773333 0 34.133333 15.36 34.133333 34.133333s-15.36 34.133333-34.133333 34.133333z" fill="#3793DF" p-id="2832"></path><path d="M455.68 836.266667c-8.533333 0-17.066667-3.413333-23.893333-10.24l-288.426667-290.133334c-13.653333-13.653333-13.653333-34.133333 0-47.786666l288.426667-290.133334c13.653333-13.653333 34.133333-13.653333 47.786666 0 13.653333 13.653333 13.653333 34.133333 0 47.786667L215.04 512l264.533333 266.24c13.653333 13.653333 13.653333 34.133333 0 47.786667-6.826667 6.826667-15.36 10.24-23.893333 10.24z" fill="#1296db" p-id="2833" data-spm-anchor-id="a313x.7781069.0.i0" class="selected"></path></svg>